<svg width="58" height="58" viewBox="0 0 58 58" fill="none" xmlns="http://www.w3.org/2000/svg">
<g clip-path="url(#clip0_433_112)">
<path d="M12.4667 27.3697C12.4668 27.051 12.5298 26.7354 12.6522 26.4411C12.7745 26.1467 12.9538 25.8795 13.1797 25.6546C13.4056 25.4298 13.6738 25.2518 13.9687 25.1309C14.2636 25.01 14.5795 24.9485 14.8982 24.9499L18.9294 24.9631C19.5721 24.9631 20.1886 25.2184 20.6431 25.6729C21.0976 26.1274 21.3529 26.7439 21.3529 27.3866V42.6306C21.8069 42.496 22.388 42.3525 23.0274 42.2019C23.4704 42.0977 23.8651 41.8469 24.1477 41.4902C24.4303 41.1335 24.5842 40.6918 24.5842 40.2367V21.329C24.5842 20.6862 24.8395 20.0698 25.294 19.6152C25.7485 19.1606 26.365 18.9052 27.0077 18.9051H31.0512C31.6939 18.9052 32.3104 19.1606 32.7648 19.6152C33.2193 20.0698 33.4747 20.6862 33.4747 21.329V38.8784C33.4747 38.8784 34.4862 38.469 35.471 38.0531C35.8369 37.8984 36.1491 37.6393 36.3687 37.3082C36.5884 36.9771 36.7057 36.5887 36.706 36.1914V15.27C36.706 14.6274 36.9612 14.011 37.4156 13.5566C37.87 13.1021 38.4863 12.8467 39.129 12.8465H43.1682C43.8105 12.8472 44.4263 13.1028 44.8803 13.5572C45.3343 14.0117 45.5894 14.6277 45.5894 15.27V32.498C49.0913 29.9602 52.6402 26.9077 55.4566 23.2373C55.865 22.7046 56.1355 22.079 56.2437 21.4163C56.3515 20.7536 56.2941 20.0745 56.0758 19.4395C54.772 15.6889 52.6995 12.2516 49.9914 9.34777C47.283 6.44394 43.9982 4.13744 40.3474 2.5759C36.6965 1.01436 32.7598 0.232164 28.7893 0.279359C24.8187 0.326554 20.9018 1.2021 17.289 2.84998C13.6763 4.49785 10.4473 6.88178 7.80877 9.84917C5.17024 12.8166 3.1802 16.3021 1.96603 20.0827C0.75185 23.8633 0.340275 27.8558 0.757633 31.8047C1.17499 35.7535 2.41209 39.5717 4.38978 43.0149C4.73434 43.6089 5.24126 44.0923 5.851 44.4082C6.46071 44.724 7.14791 44.8593 7.83192 44.7981C8.59599 44.7308 9.54733 44.6358 10.6784 44.5031C11.1706 44.4471 11.6251 44.212 11.9552 43.8426C12.2854 43.4732 12.4681 42.9952 12.4686 42.4997V27.3697" fill="#A3A8AF"/>
<path d="M12.3799 51.8169C16.6375 54.9142 21.6689 56.7735 26.9175 57.1885C32.1661 57.604 37.4273 56.559 42.119 54.1698C46.8107 51.7807 50.7499 48.14 53.5008 43.651C56.2518 39.1618 57.7075 33.9991 57.7065 28.7342C57.7065 28.0755 57.676 27.4271 57.6322 26.7807C47.2047 42.3328 27.9513 49.6032 12.3799 51.8169Z" fill="#F0B90B"/>
</g>
<defs>
<clipPath id="clip0_433_112">
<rect width="57.4" height="57.4" fill="white" transform="translate(0.599609 0.277344)"/>
</clipPath>
</defs>
</svg>
